<svg width="29" height="29" viewBox="0 0 29 29" fill="none" xmlns="http://www.w3.org/2000/svg">
<path fill-rule="evenodd" clip-rule="evenodd" d="M8.76042 8.01243V6.59895C8.76042 5.55224 9.52619 4.66303 10.5613 4.50776L12.0354 4.28665C13.6693 4.04156 15.3307 4.04156 16.9646 4.28665L18.4387 4.50776C19.4738 4.66303 20.2396 5.55224 20.2396 6.59895V8.01243L22.3107 8.17961C23.8965 8.30761 25.1901 9.50162 25.4444 11.0721C26.0065 14.5431 26.0065 18.0819 25.4444 21.5529C25.1901 23.1234 23.8965 24.3174 22.3107 24.4454L20.0488 24.628C16.3556 24.9261 12.6444 24.9261 8.95118 24.628L6.68928 24.4454C5.10348 24.3174 3.80991 23.1234 3.55558 21.5529C2.99348 18.0819 2.99348 14.5431 3.55558 11.0721C3.80991 9.50162 5.10348 8.30761 6.68928 8.17961L8.76042 8.01243ZM12.3042 6.0791C13.7599 5.86074 15.2401 5.86074 16.6957 6.0791L18.1698 6.30021C18.3177 6.32239 18.4271 6.44942 18.4271 6.59895V7.88535C15.8112 7.73615 13.1888 7.73615 10.5729 7.88535V6.59895C10.5729 6.44942 10.6823 6.32239 10.8302 6.30021L12.3042 6.0791ZM9.09701 9.80366C12.6931 9.51338 16.3068 9.51338 19.903 9.80366L22.1649 9.98623C22.9191 10.0471 23.5343 10.615 23.6552 11.3619C23.7305 11.827 23.7952 12.2934 23.8491 12.7607C17.9554 15.6629 11.0446 15.6629 5.15085 12.7607C5.20481 12.2934 5.26945 11.827 5.34477 11.3619C5.46573 10.615 6.08093 10.0471 6.83511 9.98623L9.09701 9.80366ZM4.98907 14.6893C11.03 17.4367 17.97 17.4367 24.0109 14.6893C24.1261 16.8838 24.0075 19.0876 23.6552 21.2631C23.5343 22.01 22.9191 22.5779 22.1649 22.6388L19.903 22.8213C16.3068 23.1116 12.6931 23.1116 9.09701 22.8213L6.83511 22.6388C6.08093 22.5779 5.46573 22.01 5.34477 21.2631C4.99245 19.0876 4.87389 16.8838 4.98907 14.6893Z" fill="#FCFCFC"/>
</svg>
