<svg width="29" height="29" viewBox="0 0 29 29" fill="none" xmlns="http://www.w3.org/2000/svg">
<path d="M20.2396 13.2917C20.2396 13.7922 19.8338 14.1979 19.3333 14.1979H9.66666C9.16615 14.1979 8.76041 13.7922 8.76041 13.2917C8.76041 12.7912 9.16615 12.3854 9.66666 12.3854H19.3333C19.8338 12.3854 20.2396 12.7912 20.2396 13.2917Z" fill="#FCFCFC"/>
<path fill-rule="evenodd" clip-rule="evenodd" d="M5.29924 9.84392L6.73562 5.91975C7.09761 4.93079 7.97557 4.22214 9.01864 4.07699C12.6554 3.5709 16.3447 3.5709 19.9814 4.07698C21.0245 4.22214 21.9025 4.9308 22.2645 5.91977L23.7009 9.84429C23.9696 10.2634 24.1546 10.7426 24.2323 11.2591L24.3555 12.0782C24.8386 15.2907 24.7934 18.5606 24.2218 21.7585C23.9683 23.1762 22.8041 24.2531 21.3709 24.3954L19.8841 24.543C16.3035 24.8984 12.6965 24.8984 9.11586 24.543L7.62905 24.3954C6.19588 24.2531 5.03158 23.1762 4.77816 21.7585C4.20653 18.5606 4.16136 15.2907 4.64445 12.0782L4.76762 11.2591C4.84531 10.7424 5.03045 10.2632 5.29924 9.84392ZM9.26846 5.87219C12.7395 5.38916 16.2606 5.38916 19.7316 5.87219C20.1112 5.92501 20.4307 6.18288 20.5624 6.54276L21.1741 8.21387C21.1193 8.20589 21.0641 8.19913 21.0085 8.19361L19.8265 8.0763C16.2842 7.72471 12.7157 7.72471 9.17341 8.0763L7.99142 8.19361C7.93591 8.19912 7.88076 8.20588 7.82601 8.21385L8.43768 6.54276C8.56941 6.18288 8.88889 5.92501 9.26846 5.87219ZM6.87017 10.7553L6.89271 10.7636L6.92069 10.6872C7.21763 10.3055 7.66364 10.0476 8.17044 9.99725L9.35242 9.87993C12.7757 9.54016 16.2242 9.54016 19.6475 9.87993L20.8295 9.99725C21.3364 10.0476 21.7825 10.3056 22.0794 10.6874L22.1073 10.7636L22.1298 10.7554C22.2882 10.98 22.397 11.2429 22.44 11.5286L22.5631 12.3477C23.0168 15.3649 22.9744 18.436 22.4376 21.4396C22.3268 22.059 21.8181 22.5296 21.1919 22.5918L19.705 22.7393C16.2435 23.0829 12.7564 23.0829 9.29488 22.7393L7.80807 22.5918C7.18185 22.5296 6.67311 22.059 6.56238 21.4396C6.0255 18.436 5.98308 15.3649 6.4368 12.3477L6.55996 11.5286C6.60294 11.2429 6.71172 10.98 6.87017 10.7553Z" fill="#FCFCFC"/>
</svg>
