<svg width="29" height="29" viewBox="0 0 29 29" fill="none" xmlns="http://www.w3.org/2000/svg">
<path fill-rule="evenodd" clip-rule="evenodd" d="M13.5937 6.99422C9.18131 7.4477 5.73958 11.1761 5.73958 15.7083C5.73958 20.5466 9.66175 24.4687 14.5 24.4687C19.0322 24.4687 22.7606 21.027 23.2141 16.6146H14.5C13.9995 16.6146 13.5937 16.2088 13.5937 15.7083V6.99422ZM3.92708 15.7083C3.92708 9.86907 8.66073 5.13541 14.5 5.13541C15.0005 5.13541 15.4062 5.54116 15.4062 6.04166V14.8021H24.1667C24.6672 14.8021 25.0729 15.2078 25.0729 15.7083C25.0729 21.5476 20.3393 26.2812 14.5 26.2812C8.66073 26.2812 3.92708 21.5476 3.92708 15.7083Z" fill="#FCFCFC"/>
<path fill-rule="evenodd" clip-rule="evenodd" d="M18.7292 5.64732V11.4792H24.561C23.8807 8.59801 21.6103 6.32764 18.7292 5.64732ZM18.1226 3.69949C22.4971 4.24387 25.9645 7.71118 26.5088 12.0857C26.5912 12.748 26.0423 13.2917 25.375 13.2917H17.5208C17.1872 13.2917 16.9167 13.0212 16.9167 12.6875V4.83333C16.9167 4.16599 17.4604 3.61707 18.1226 3.69949Z" fill="#FCFCFC"/>
</svg>
