<svg width="29" height="29" viewBox="0 0 29 29" fill="none" xmlns="http://www.w3.org/2000/svg">
<path fill-rule="evenodd" clip-rule="evenodd" d="M13.5938 4.57189C8.51286 5.02975 4.53125 9.2999 4.53125 14.5C4.53125 20.0056 8.99441 24.4688 14.5 24.4688C17.305 24.4688 19.8391 23.3111 21.6515 21.445L13.9304 15.2048C13.7175 15.0328 13.5938 14.7737 13.5938 14.5V4.57189ZM15.4062 4.57189V13.5938H24.4281C23.9971 8.81134 20.1887 5.00285 15.4062 4.57189ZM24.4282 15.4062H17.0631L22.7917 20.036C23.6933 18.6886 24.2748 17.1097 24.4282 15.4062ZM2.71875 14.5C2.71875 7.9934 7.9934 2.71875 14.5 2.71875C21.0066 2.71875 26.2812 7.9934 26.2812 14.5C26.2812 17.3048 25.3 19.8828 23.6628 21.906C21.5045 24.5733 18.2014 26.2812 14.5 26.2812C7.9934 26.2812 2.71875 21.0066 2.71875 14.5Z" fill="#FCFCFC"/>
</svg>
