<svg width="119" height="36" viewBox="0 0 119 36" fill="none" xmlns="http://www.w3.org/2000/svg">
<path d="M27.9105 16.9592C27.9105 13.9142 26.1045 11.3102 22.6815 11.3102C19.2585 11.3102 17.0115 13.8092 17.0115 17.2322C17.0115 21.1592 19.3845 23.0702 22.4505 23.0702C25.0755 23.0702 27.1755 21.7472 27.7425 19.1432H24.8445C24.6555 20.3402 23.7525 21.0332 22.5135 21.0332C21.1695 21.0332 20.1195 20.2982 19.9305 17.9462H27.8685C27.9105 17.5682 27.9105 17.2322 27.9105 16.9592ZM22.5555 13.3472C23.9415 13.3472 24.7395 14.2922 24.9285 16.0562H20.0145C20.2665 14.2082 21.2115 13.3472 22.5555 13.3472ZM35.4229 17.1272L39.2869 11.6042H35.9479L33.7429 15.3212L31.5169 11.6042H28.1359L31.9369 17.1062L27.9889 22.7762H31.3069L33.6589 18.9122L35.9479 22.7762H39.3289L35.4229 17.1272ZM45.0535 11.3102C41.9875 11.3102 39.4675 13.4522 39.4675 17.2742C39.4675 21.1382 41.7565 23.0702 44.8015 23.0702C47.5945 23.0702 49.6525 21.6632 50.1355 18.9122H47.2375C46.9435 20.3192 46.1035 21.0332 44.9695 21.0332C43.5205 21.0332 42.4705 19.8572 42.4705 17.0852C42.4705 14.5442 43.5205 13.3472 44.9905 13.3472C46.1875 13.3472 47.0275 14.0192 47.3005 15.6362H50.1565C49.9465 13.1582 48.0775 11.3102 45.0535 11.3102ZM62.306 11.6042H59.408V17.2952C59.408 19.8152 58.4 21.0122 56.951 21.0122C55.607 21.0122 54.935 20.2772 54.788 19.1222C54.725 18.5552 54.704 17.9462 54.704 17.5892V11.6042H51.806V18.1982C51.806 19.1012 51.827 19.6682 51.911 20.2352C52.163 21.7682 53.549 23.0702 55.859 23.0702C56.93 23.0702 57.728 22.8602 58.547 22.3142L59.408 20.8862V22.7762H62.306V11.6042ZM68.9664 11.3102C66.2994 11.3102 64.5354 12.6122 64.5354 14.7542C64.5354 16.6862 65.9634 17.5892 68.0424 18.1142C69.9744 18.5972 70.7094 19.0802 70.7094 19.9412C70.7094 20.7602 69.9954 21.1592 69.0714 21.1592C68.0634 21.1592 67.2234 20.5922 66.9924 19.3742H64.0944C64.4094 21.8942 66.3204 23.0702 69.0294 23.0702C71.5914 23.0702 73.6284 21.9782 73.6284 19.7312C73.6284 17.6732 72.2844 16.7492 69.9954 16.1612C68.1474 15.6992 67.4544 15.2582 67.4544 14.4182C67.4544 13.7252 67.9164 13.2212 68.7774 13.2212C69.7434 13.2212 70.3104 13.8092 70.4994 14.8382H73.3974C73.1454 12.8012 71.6334 11.3102 68.9664 11.3102ZM85.5579 16.9592C85.5579 13.9142 83.7519 11.3102 80.3289 11.3102C76.9059 11.3102 74.6589 13.8092 74.6589 17.2322C74.6589 21.1592 77.0319 23.0702 80.0979 23.0702C82.7229 23.0702 84.8229 21.7472 85.3899 19.1432H82.4919C82.3029 20.3402 81.3999 21.0332 80.1609 21.0332C78.8169 21.0332 77.7669 20.2982 77.5779 17.9462H85.5159C85.5579 17.5682 85.5579 17.2322 85.5579 16.9592ZM80.2029 13.3472C81.5889 13.3472 82.3869 14.2922 82.5759 16.0562H77.6619C77.9139 14.2082 78.8589 13.3472 80.2029 13.3472ZM104.146 14.0822C103.894 12.5492 102.676 11.3102 100.555 11.3102C99.5465 11.3102 98.7905 11.5202 98.1605 11.9612L97.0685 13.4312C96.6275 12.2132 95.4725 11.3102 93.6455 11.3102C92.6375 11.3102 91.9025 11.5202 91.2725 11.9612L90.4535 13.3052V11.6042H87.5555V22.7762H90.4535V17.0432C90.4535 14.4602 91.1675 13.3472 92.4695 13.3472C93.5825 13.3472 94.2335 13.9772 94.3805 15.1322C94.4435 15.6992 94.4645 16.3082 94.4645 16.9592V22.7762H97.3415V17.0432C97.3415 14.4602 98.0765 13.3472 99.3785 13.3472C100.492 13.3472 101.122 13.9772 101.269 15.1322C101.332 15.6992 101.353 16.3082 101.353 16.9592V22.7762H104.251V16.1192C104.251 15.2162 104.23 14.6492 104.146 14.0822ZM116.935 16.9592C116.935 13.9142 115.129 11.3102 111.706 11.3102C108.283 11.3102 106.036 13.8092 106.036 17.2322C106.036 21.1592 108.409 23.0702 111.475 23.0702C114.1 23.0702 116.2 21.7472 116.767 19.1432H113.869C113.68 20.3402 112.777 21.0332 111.538 21.0332C110.194 21.0332 109.144 20.2982 108.955 17.9462H116.893C116.935 17.5682 116.935 17.2322 116.935 16.9592ZM111.58 13.3472C112.966 13.3472 113.764 14.2922 113.953 16.0562H109.039C109.291 14.2082 110.236 13.3472 111.58 13.3472Z" fill="black"/>
<mask id="mask0_1_3" style="mask-type:alpha" maskUnits="userSpaceOnUse" x="0" y="0" width="43" height="36">
<path d="M37.9444 8.77614H28.4444C26.9444 8.77615 23.6445 9.77615 22.4445 9.77614C20.9445 9.77613 14.4445 17.2762 14.9445 18.2762C15.3445 19.0762 24.4445 23.9428 28.9445 25.7762H35.9445C38.2778 26.2762 42.7445 26.9762 41.9445 29.7762C40.9445 33.2762 32.4445 35.2762 24.9445 35.2762C17.4445 35.2762 9.44444 33.7762 2.94444 28.7762C-3.55556 23.7762 2.44444 21.7762 4.44444 15.7762C6.44444 9.77615 5.94444 8.77615 6.94444 5.77615C7.94444 2.77615 14.4444 1.27614 16.9444 0.276142C19.4444 -0.723858 31.4444 1.27614 31.9444 1.77614C32.3444 2.17614 36.1111 6.27614 37.9444 8.77614Z" fill="#C4C4C4"/>
</mask>
<g mask="url(#mask0_1_3)">
<circle cx="22.4445" cy="16.7762" r="13" stroke="black" stroke-width="2"/>
</g>
</svg>
